<?xml version="1.0" encoding="UTF-8"?>
<svg version="1.1" xmlns="http://www.w3.org/2000/svg" width="507" height="492">
<path d="M0 0 C2.203125 0.00390625 2.203125 0.00390625 5 1 C6.94236199 3.44211882 8.30434902 6.18069074 9.75 8.9375 C13.7638683 16.16005493 18.04300163 22.2075596 24 28 C24.58652344 28.61875 25.17304687 29.2375 25.77734375 29.875 C33.59976987 37.54337397 44.61511939 41.55432328 54.53198242 45.84960938 C91.48879851 61.89338292 91.48879851 61.89338292 99.0703125 78.625 C100.28271957 81.72224159 101.22649269 84.76533307 102 88 C102.23668569 80.96517526 101.7879537 74.8165735 100 68 C110.02162234 57.45092385 124.128974 52.26470761 138 49 C139.07121094 48.72542969 140.14242187 48.45085937 141.24609375 48.16796875 C181.05795093 38.64876144 223.194516 44.06033635 260.125 60.875 C261.0020459 61.26123535 261.8790918 61.6474707 262.78271484 62.04541016 C268.75631461 64.86266877 273.68628609 68.13457007 277 74 C277.75105117 77.24298998 277.68240186 80.19517048 277.4375 83.5 C277.40591797 84.32242188 277.37433594 85.14484375 277.34179688 85.9921875 C277.26023127 87.99637089 277.13470385 89.99868571 277 92 C277.27972656 90.97261719 277.55945313 89.94523437 277.84765625 88.88671875 C281.2471241 76.930718 285.93275528 65.90710738 296 58 C302.48824203 54.48939761 309.63677785 52.33581736 316.625 50.0625 C317.68315918 49.711875 318.74131836 49.36125 319.83154297 49 C324.34376773 47.50717179 328.85733778 46.02972508 333.40625 44.65234375 C352.7662475 38.65318486 369.78979646 27.30751504 379.52734375 9.15234375 C380.72891119 6.78582173 381.88755652 4.40943979 383 2 C383.99 2 384.98 2 386 2 C388.83915912 32.45923968 380.64610012 63.93368554 361.39453125 88.203125 C352.93688123 98.08188098 343.60755372 105.59904821 333 113 C341.52560854 113 352.14507336 104.89971753 357.93359375 99.23046875 C363.00565118 93.98866033 367.30921156 88.50515292 370.78125 82.05859375 C371.98619356 80.0233205 373.2577039 78.58528685 375 77 C375.99 77.33 376.98 77.66 378 78 C375.47177871 97.43334272 356.50124739 116.08774415 343.50244141 129.45068359 C342.25131234 130.74084691 341.01960215 132.04980654 339.79296875 133.36328125 C335.96218718 137.3876181 331.80046899 140.88679344 327.4375 144.3125 C326.90697021 144.73378174 326.37644043 145.15506348 325.82983398 145.58911133 C318.51007261 151.18923091 312.48234346 152.36471656 303.5625 152.4375 C275.3490921 153.25711261 251.70952872 167.38271556 232 187 C231.24589844 187.73992187 230.49179687 188.47984375 229.71484375 189.2421875 C228.12818518 190.81307411 226.56095452 192.40356925 225 194 C222.10926313 192.68086462 219.955603 191.21256333 217.625 189.0625 C210.6189713 182.93782672 203.60963485 181.65277909 194.51953125 181.7890625 C187.18688745 182.40295826 182.07791433 185.85491749 177 191 C175.13750914 193.19817808 175.13750914 193.19817808 174 195 C170.00211261 193.49860997 168.78276292 191.34941237 166.625 187.75 C151.54147174 164.57492785 124.49063525 142.15713328 97.61254883 134.54711914 C93.17201856 133.61718471 88.83112653 133.64483924 84.3125 133.75 C83.41466797 133.75515625 82.51683594 133.7603125 81.59179688 133.765625 C75.89026883 133.8324561 70.40383736 134.30348524 64.8046875 135.44921875 C59.92029551 136.05235217 57.08185865 134.6883565 53.13769531 131.77612305 C50.36082352 129.58979507 47.67392865 127.31022492 45 125 C44.22011719 124.35933594 43.44023438 123.71867187 42.63671875 123.05859375 C37.9156796 119.10758817 33.9419101 114.71420269 30 110 C29.20335938 109.07960938 28.40671875 108.15921875 27.5859375 107.2109375 C20.00722539 98.35002637 13.96695562 89.13683301 8.6875 78.75 C8.34960449 78.08838867 8.01170898 77.42677734 7.66357422 76.74511719 C2.05577489 65.41594285 2.05577489 65.41594285 4 59 C8.2952908 60.49401419 9.32035008 63.02829338 11.25 67 C19.59474855 83.30252035 33.71767379 95.29593336 49 105 C49.66 105 50.32 105 51 105 C50.33355469 104.47792969 49.66710937 103.95585937 48.98046875 103.41796875 C23.17369592 82.80864388 3.09654852 55.28683254 -2 22 C-2.52502085 14.35438386 -2.34203685 7.31886516 0 0 Z " fill="#99765A" transform="translate(63,48)"/>
<path d="M0 0 C1.21051795 3.63155384 0.39507619 4.73592506 -1.24975586 8.03735352 C-1.57983643 8.68502686 -1.90991699 9.3327002 -2.25 10 C-10.32283845 26.68306704 -10.88747261 42.42213393 -5 60 C-3.34596125 63.95634629 -1.41444934 67.4607706 1 71 C1.46664062 71.70253906 1.93328125 72.40507812 2.4140625 73.12890625 C12.80290728 86.74095671 33.89624655 93.79347694 49.25 99.375 C73.01951306 108.19444369 95.40053297 118.99456302 108.66015625 141.8828125 C109.82578967 144.12816456 109.82578967 144.12816456 112 145 C112 144.34 112 143.68 112 143 C121.71634982 132.66720502 134.50553366 124.51686301 147 118 C148.00264893 117.46334717 149.00529785 116.92669434 150.03833008 116.3737793 C158.41510031 112.01042478 166.75849025 108.94502779 175.8125 106.1875 C194.40631059 100.30153018 213.65561027 91.60090193 224 74 C228.83766302 64.16296935 231.39197978 54.70082877 231.375 43.75 C231.37701416 42.92806152 231.37902832 42.10612305 231.38110352 41.25927734 C231.27548041 34.85564224 230.12250135 29.64934689 227.77734375 23.6640625 C227 21 227 21 228 16 C231.3 15.34 234.6 14.68 238 14 C240.80938531 18.97662541 242.02448407 23.71220386 243.125 29.25 C243.29386719 30.04535156 243.46273438 30.84070313 243.63671875 31.66015625 C248.17327733 53.77141423 248.12975649 77.62104256 239.75 98.75 C234.31681151 114.48676506 238.48272204 132.23418345 242.54101562 147.78369141 C243 150 243 150 243 154 C238.80958365 153.38803326 235.68355494 150.99289999 232.25 148.6875 C220.06526597 140.7216439 208.43688751 135.71606541 193.46875 138.46484375 C185.03098397 140.72114511 177.82187536 145.28076975 170.41796875 149.77734375 C120.35423747 180.17961159 120.35423747 180.17961159 98.9921875 175.56640625 C90.4361574 172.86538498 84.07366002 166.23386459 77.953125 159.96875 C66.40875288 148.3320229 52.68582449 138.07561953 36 136 C34.60201172 135.80470703 34.60201172 135.80470703 33.17578125 135.60546875 C17.90425217 134.51859274 -1.06423733 141.28435378 -13.1262207 150.65112305 C-15 152 -15 152 -17 152 C-16.38983411 146.28732182 -14.89185358 141.22480753 -13 135.8125 C-12.45703962 134.23612209 -11.91532835 132.65931327 -11.375 131.08203125 C-11.13523438 130.39343018 -10.89546875 129.7048291 -10.6484375 128.99536133 C-9.10748618 124.253571 -8.78503448 119.8498965 -8.75 114.875 C-8.729375 114.16601562 -8.70875 113.45703125 -8.6875 112.7265625 C-8.6190554 103.21276258 -12.17047286 95.17306424 -16.375 86.8125 C-28.65713491 61.5292638 -31.83582761 34.40163761 -23.29296875 7.35546875 C-21.32132688 3.7636257 -18.62086101 2.54416698 -14.82421875 1.26953125 C-9.77059411 0.18859143 -5.16827869 -0.18793741 0 0 Z " fill="#977559" transform="translate(145,192)"/>
<path d="M0 0 C2.65980109 1.19066908 3.24384627 2.08080494 4.4140625 4.71875 C4.72859375 5.39421875 5.043125 6.0696875 5.3671875 6.765625 C9.72918431 18.82526324 8.01479757 34.39185032 3.1640625 45.96875 C-2.0381777 55.77024347 -2.0381777 55.77024347 -6.8359375 58.96875 C-10.0234375 58.59375 -10.0234375 58.59375 -12.8359375 57.96875 C-13.16464844 58.64679688 -13.49335938 59.32484375 -13.83203125 60.0234375 C-17.5844054 67.36548123 -22.02019374 73.14269464 -27.8359375 78.96875 C-28.64804687 79.79826172 -28.64804687 79.79826172 -29.4765625 80.64453125 C-33.22364438 84.15505493 -37.54034187 86.7073769 -41.9609375 89.28125 C-42.85848755 89.8064624 -42.85848755 89.8064624 -43.77416992 90.34228516 C-47.07494025 92.20157693 -50.02181933 93.72459365 -53.8359375 93.96875 C-55.3209375 92.97875 -55.3209375 92.97875 -56.8359375 91.96875 C-57.05297852 89.48193359 -57.05297852 89.48193359 -56.83984375 86.3671875 C-56.77603516 85.23667969 -56.71222656 84.10617187 -56.64648438 82.94140625 C-56.56462891 81.75417969 -56.48277344 80.56695312 -56.3984375 79.34375 C-55.89178328 71.78162172 -55.45957553 65.23234696 -57.8359375 57.96875 C-58.6196875 58.175 -59.4034375 58.38125 -60.2109375 58.59375 C-61.0771875 58.7175 -61.9434375 58.84125 -62.8359375 58.96875 C-64.8359375 56.96875 -64.8359375 56.96875 -66.0234375 53.90625 C-67.34145173 50.64838918 -69.10782005 48.24251713 -71.3359375 45.53125 C-76.61394348 38.94769075 -78.42326732 33.45763648 -77.8359375 24.96875 C-77.39092691 22.19194961 -76.73878683 19.49957746 -76.0234375 16.78125 C-75.85779297 16.09611328 -75.69214844 15.41097656 -75.52148438 14.70507812 C-74.50214157 10.70848501 -73.44558785 7.19887666 -70.8359375 3.96875 C-68.4453125 2.98046875 -68.4453125 2.98046875 -65.8359375 2.96875 C-63.4765625 4.11328125 -63.4765625 4.11328125 -61.0859375 5.78125 C-50.81316541 12.26377529 -38.6630847 12.13721903 -26.85546875 10.57421875 C-20.22838822 9.02021348 -14.31929682 5.86569225 -8.40405273 2.57421875 C-5.49333868 1.00738372 -3.34053802 -0.03681034 0 0 Z " fill="#977559" transform="translate(295.8359375,360.03125)"/>
<path d="M0 0 C6.42310627 3.90264684 9.59335523 9.01756353 12 16 C12.70125 15.21625 13.4025 14.4325 14.125 13.625 C17.24633999 10.77508088 18.80064261 9.49404205 23 9 C30.55288618 12.00331301 35.15307981 17.80871232 38.5625 24.9375 C40.96100371 30.99448089 42.173584 37.16001462 43.3125 43.5625 C43.48402588 44.51954834 43.65555176 45.47659668 43.83227539 46.46264648 C46.51219874 62.78657769 46.51219874 62.78657769 43.5 69.1875 C43.005 69.785625 42.51 70.38375 42 71 C36.1684228 70.46985662 32.13154785 67.33878167 28.3125 63.1484375 C24.03240204 57.54071656 21.10610005 51.32215766 18.1875 44.9375 C17.80223145 44.09888428 17.41696289 43.26026855 17.02001953 42.39624023 C14.62755819 36.98219669 13.10694243 31.81584037 12 26 C12.26199339 32.87050811 13.45285241 38.96738252 15.5 45.5 C19.63194185 58.8837057 19.63194185 58.8837057 19 65 C17.0625 67.6875 17.0625 67.6875 15 69 C6.4957832 67.1332207 2.33010514 60.7571717 -2.3125 53.875 C-6.10664213 47.89862777 -9.36849305 41.65677844 -12.5 35.3125 C-13.15029175 34.03125244 -13.15029175 34.03125244 -13.8137207 32.72412109 C-18.0409786 23.87629315 -19.20482853 15.44454099 -15.95703125 6.1015625 C-14.73390408 3.41567508 -13.39819542 1.72370295 -11 0 C-7.07160605 -1.30946465 -3.90263026 -1.22435459 0 0 Z " fill="#937257" transform="translate(352,332)"/>
<path d="M0 0 C5.76247946 3.47479985 9.34867209 9.25603744 11.5 15.5 C12.53826729 24.74152136 10.74848665 32.8323251 7.875 41.5625 C7.54371094 42.64337891 7.21242188 43.72425781 6.87109375 44.83789062 C3.09279774 56.73595863 -1.72642358 69.31761572 -12.5 76.5 C-15.9375 76.5 -15.9375 76.5 -19.5 75.5 C-23.1159646 71.00617116 -24.88249819 66.26506661 -26.625 60.8125 C-26.88434326 60.01448975 -27.14368652 59.21647949 -27.41088867 58.39428711 C-29.28597232 52.48654671 -30.75262739 46.66339752 -31.5 40.5 C-31.66435547 39.25669922 -31.66435547 39.25669922 -31.83203125 37.98828125 C-34.57404591 13.52951047 -34.57404591 13.52951047 -29.84375 6.01171875 C-22.50227413 -2.2474416 -10.18231295 -4.48812629 0 0 Z " fill="#987559" transform="translate(271.5,239.5)"/>
<path d="M0 0 C3.69090531 2.29629614 7.03451014 5.06902028 9 9 C9.84085628 16.29201594 8.56239814 21.66567667 5 28 C4.50242188 28.88816406 4.00484375 29.77632813 3.4921875 30.69140625 C-2.16069719 40.1435553 -9.03960523 46.98003294 -18.1875 53 C-18.76959229 53.38623535 -19.35168457 53.7724707 -19.95141602 54.17041016 C-23.60862701 56.47053632 -26.68199246 57.706008 -31 58 C-33.875 57 -33.875 57 -36 55 C-37.17235506 47.93773312 -33.70953827 43.05972205 -30.3125 37.0625 C-25.84726589 28.89716588 -22.33225294 21.17394089 -19.96484375 12.1796875 C-18.61432067 7.72897582 -16.60274051 4.00228376 -13 1 C-8.59470166 -0.46843278 -4.5876224 -0.85256699 0 0 Z " fill="#957359" transform="translate(183,331)"/>
<path d="M0 0 C4.54844985 3.45054816 5.98055134 11.69899511 7.6875 17 C9.47751715 22.53041892 11.41120642 27.89553669 13.6875 33.25 C16.12917269 39.3736839 16.34128723 44.85329085 15.8125 51.375 C13.6875 52.5625 13.6875 52.5625 10.8125 53.375 C1.60116028 49.90284992 -4.99090666 42.0943565 -10.625 34.3125 C-11.03782227 33.74748779 -11.45064453 33.18247559 -11.87597656 32.6003418 C-16.56985383 25.86088754 -19.51698285 18.66981689 -18.1875 10.375 C-16.65216057 6.05497631 -14.69056287 2.39275189 -11.1875 -0.625 C-7.08687506 -1.99187498 -4.08657957 -1.16759416 0 0 Z " fill="#907057" transform="translate(327.1875,343.625)"/>
<path d="M0 0 C2.53652914 4.27204908 2.6845777 8.00301925 1.515625 12.69921875 C-1.82055078 21.75282622 -7.52406309 28.8332437 -13.8125 36 C-14.2962207 36.55236328 -14.77994141 37.10472656 -15.27832031 37.67382812 C-24.03964742 47.49265864 -24.03964742 47.49265864 -31.8125 48 C-34.52300122 44.85581858 -35.07274973 42.32929131 -34.875 38.3125 C-34.21457843 32.91905718 -32.68837567 27.89390036 -31 22.75 C-30.75193604 21.99372314 -30.50387207 21.23744629 -30.24829102 20.45825195 C-27.27974646 11.86032751 -24.15397224 6.14040349 -15.8125 2 C-10.85813464 -0.3101816 -5.21896396 -2.87942839 0 0 Z " fill="#967459" transform="translate(156.8125,340)"/>
<path d="M0 0 C3.84003522 2.3971129 6.44049033 4.85665415 8.4375 8.9375 C10.05352092 17.73583612 8.16904396 25.92482317 3.421875 33.52734375 C1.70500722 35.78943306 -0.08261201 37.90574603 -2 40 C-2.60457031 40.66128906 -3.20914063 41.32257813 -3.83203125 42.00390625 C-7.59969589 45.93573929 -11.0671828 49.51119713 -16.625 50.4375 C-19 50 -19 50 -20.8125 48.4375 C-24.1447345 41.59765024 -20.7913247 34.08960934 -18.6875 27.3125 C-18.06402316 25.26765217 -17.44292688 23.22207699 -16.82421875 21.17578125 C-16.51758301 20.16620361 -16.21094727 19.15662598 -15.89501953 18.11645508 C-14.69388696 13.93411539 -13.70473486 9.71067312 -12.74633789 5.46679688 C-12 3 -12 3 -9.75 0.1875 C-5.90110263 -1.47452386 -4.00608679 -1.24326831 0 0 Z " fill="#8F7056" transform="translate(207,341)"/>
<path d="M0 0 C1.29721383 0.55200589 2.57499365 1.15077808 3.8359375 1.78125 C3.8359375 2.77125 3.8359375 3.76125 3.8359375 4.78125 C2.3333297 6.0225347 0.82870595 7.261661 -0.6953125 8.4765625 C-3.42565451 10.9019195 -4.01682389 13.33831165 -4.37890625 16.88671875 C-4.5912148 21.95664681 -4.13327356 25.5130091 -1.1640625 29.78125 C5.73896117 37.01752309 11.91846972 40.96586238 22.0234375 41.21875 C26.88080076 41.21339458 29.953562 40.80395664 33.8359375 37.78125 C35.03467605 36.01544884 35.03467605 36.01544884 35.6484375 34.09375 C36.0403125 33.000625 36.4321875 31.9075 36.8359375 30.78125 C38.1559375 31.11125 39.4759375 31.44125 40.8359375 31.78125 C41.75989717 35.1927934 42.34877571 37.47789045 41.03515625 40.81640625 C37.46989465 46.8436726 33.01415296 51.37550085 26.5859375 54.21875 C18.03854197 55.50085933 11.40874524 54.40989132 4.18359375 49.56640625 C-4.44014876 43.00891819 -10.71808331 35.25927256 -12.82421875 24.3671875 C-13.40234558 18.58591922 -13.8520955 13.05393012 -11.1640625 7.78125 C-3.83887975 -0.38804561 -3.83887975 -0.38804561 0 0 Z " fill="#907157" transform="translate(174.1640625,197.21875)"/>
<path d="M0 0 C1.98 0 3.96 0 6 0 C9.85646986 7.07019475 10.01629459 14.02693181 8.4140625 21.8671875 C5.06558104 32.71135221 -2.72899473 39.93902335 -12.3046875 45.59375 C-20.66906966 49.95777548 -28.42555342 51.49450343 -37.625 48.875 C-43.03720731 46.83122941 -47.44455451 44.04116412 -50.1328125 38.78515625 C-51.34908299 35.49246002 -51.98613858 32.6376253 -52.0625 29.125 C-50.48715517 25.97431034 -48.17372341 25.28299457 -45 24 C-44.68546875 24.83144531 -44.3709375 25.66289062 -44.046875 26.51953125 C-43.61890625 27.60621094 -43.1909375 28.69289062 -42.75 29.8125 C-42.33234375 30.89144531 -41.9146875 31.97039062 -41.484375 33.08203125 C-39.94751557 36.10317335 -38.90378287 37.3327027 -36 39 C-26.89402358 41.32113124 -19.37791648 38.24846067 -11.515625 33.69140625 C-4.66029377 29.08215404 -1.23028356 22.87608708 1 15 C1.43831304 9.9155687 0.70678519 5.03584447 0 0 Z " fill="#856851" transform="translate(353,210)"/>
<path d="M0 0 C0.99 0.33 1.98 0.66 3 1 C0.37723335 21.16007204 -20.93129343 43.9562442 -35.91015625 56.421875 C-36.59980469 56.94265625 -37.28945313 57.4634375 -38 58 C-38.33 56.35 -38.66 54.7 -39 53 C-36.69 52.34 -34.38 51.68 -32 51 C-32 50.01 -32 49.02 -32 48 C-31.01 47.505 -31.01 47.505 -30 47 C-30.33 45.35 -30.66 43.7 -31 42 C-32.32 42 -33.64 42 -35 42 C-35.66 41.01 -36.32 40.02 -37 39 C-37.66 39 -38.32 39 -39 39 C-39 39.66 -39 40.32 -39 41 C-41.97 41.495 -41.97 41.495 -45 42 C-45.33 41.34 -45.66 40.68 -46 40 C-45.195625 39.71125 -44.39125 39.4225 -43.5625 39.125 C-40.8673532 38.26737432 -40.8673532 38.26737432 -40 36 C-38.3203125 35.17578125 -38.3203125 35.17578125 -36.125 34.3125 C-22.00303225 28.16765644 -11.5353379 18.64335604 -4.21875 5.05859375 C-3.01380644 3.0233205 -1.7422961 1.58528685 0 0 Z " fill="#92735A" transform="translate(438,125)"/>
<path d="M0 0 C8.34720005 1.05470037 16.22360975 8.30381801 21.875 14.28125 C23 16 23 16 23.25 19.5625 C21.35416098 24.77605731 18.94019938 27.92669822 14.0625 30.625 C11 31 11 31 7.875 29.625 C3.11701612 25.28075385 0.89596705 20.49902794 0.390625 14.0625 C0.32524189 12.37561572 0.27852075 10.68790997 0.25 9 C0.22035156 8.12988281 0.19070312 7.25976562 0.16015625 6.36328125 C0.09024592 4.24266784 0.04276884 2.12133437 0 0 Z " fill="#8F6F56" transform="translate(181,203)"/>
<path d="M0 0 C0.52601667 7.89025011 -0.36640202 16.42399826 -5.4609375 22.83984375 C-7.97010225 25.03695502 -10.61838017 27 -14 27 C-17.40818571 25.74801341 -19.50526124 24.57719522 -21.875 21.8125 C-23.48336951 17.79157624 -23.55058877 15.33588659 -23 11 C-19.37487921 6.90712169 -13.81870803 4.53434733 -9 2 C-8.30519531 1.62359375 -7.61039062 1.2471875 -6.89453125 0.859375 C-4.50656863 -0.22382454 -2.59136263 -0.14396459 0 0 Z " fill="#95745A" transform="translate(340,215)"/>
<path d="M0 0 C1.98 0 3.96 0 6 0 C9.85646986 7.07019475 10.01629459 14.02693181 8.4140625 21.8671875 C4.96560885 33.03511538 -3.0596444 39.90214131 -12.71484375 45.91796875 C-13.46894531 46.27503906 -14.22304688 46.63210938 -15 47 C-15.66 46.67 -16.32 46.34 -17 46 C-16 44 -16 44 -13 42 C-12.01 42 -11.02 42 -10 42 C-10.33 40.68 -10.66 39.36 -11 38 C-14.89224525 37.6229811 -14.89224525 37.6229811 -17.1875 39.5 C-21.12829232 41.6017559 -24.6230601 41.25746705 -29 41 C-29 40.67 -29 40.34 -29 40 C-27.741875 39.79375 -26.48375 39.5875 -25.1875 39.375 C-17.13172187 37.55800272 -9.29620556 33.64169539 -4.21484375 26.984375 C1.33725941 17.91534476 1.43846164 10.2490392 0 0 Z " fill="#816550" transform="translate(353,210)"/>
<path d="M0 0 C4.2952908 1.49401419 5.32035008 4.02829338 7.25 8 C12.91212767 19.07481566 20.70100823 26.96594461 30 35 C28.515 35.495 28.515 35.495 27 36 C26.67 35.34 26.34 34.68 26 34 C24.515 34.495 24.515 34.495 23 35 C23.0825 35.763125 23.165 36.52625 23.25 37.3125 C23.1675 38.199375 23.085 39.08625 23 40 C20.984375 41.66796875 20.984375 41.66796875 19 43 C0.65463409 17.81758799 0.65463409 17.81758799 -1 5 C-0.55859375 2.2265625 -0.55859375 2.2265625 0 0 Z " fill="#8A6C52" transform="translate(67,107)"/>
<path d="M0 0 C1.32 0.33 2.64 0.66 4 1 C4 1.66 4 2.32 4 3 C4.85851562 3.07089844 5.71703125 3.14179688 6.6015625 3.21484375 C10.63062401 4.14569589 13.22451281 6.0226628 16.375 8.5625 C16.92027344 8.98724609 17.46554688 9.41199219 18.02734375 9.84960938 C19.35951252 10.88963587 20.68090382 11.94344238 22 13 C20.28918226 16.78879728 18.78357481 18.15220765 15 20 C12.1875 20.6875 12.1875 20.6875 10 21 C10.79117904 22.99983534 10.79117904 22.99983534 12 25 C12.99 25.33 13.98 25.66 15 26 C16.6875 28.0625 16.6875 28.0625 18 30 C17.34 30.33 16.68 30.66 16 31 C11.75484101 27.68670518 8.22238862 24.16649187 4.75 20.05078125 C3.59982087 18.70291509 2.41240227 17.38580841 1.1875 16.10546875 C-3.01489362 11.64042553 -3.01489362 11.64042553 -2.9375 8.3125 C-2.628125 7.549375 -2.31875 6.78625 -2 6 C-1.7525 4.9171875 -1.7525 4.9171875 -1.5 3.8125 C-1 2 -1 2 0 0 Z " fill="#917258" transform="translate(90,140)"/>
<path d="M0 0 C1.29721383 0.55200589 2.57499365 1.15077808 3.8359375 1.78125 C3.8359375 2.77125 3.8359375 3.76125 3.8359375 4.78125 C2.3333297 6.0225347 0.82870595 7.261661 -0.6953125 8.4765625 C-3.43276025 10.90823152 -4.06694116 13.34280427 -4.30859375 16.921875 C-4.38281199 20.99713115 -4.1879757 24.81358635 -3.1640625 28.78125 C-4.1540625 28.12125 -5.1440625 27.46125 -6.1640625 26.78125 C-6.8240625 27.44125 -7.4840625 28.10125 -8.1640625 28.78125 C-7.5040625 30.76125 -6.8440625 32.74125 -6.1640625 34.78125 C-6.8240625 35.44125 -7.4840625 36.10125 -8.1640625 36.78125 C-12.74931941 28.52778757 -13.70790469 20.31031223 -12.7890625 10.96875 C-10.537436 6.55209802 -5.52990723 -0.55897979 0 0 Z " fill="#7C634E" transform="translate(174.1640625,197.21875)"/>
<path d="M0 0 C0.99 0.33 1.98 0.66 3 1 C2.38445956 5.85803454 0.33884476 9.68047088 -1.9375 13.9375 C-2.32993896 14.67734131 -2.72237793 15.41718262 -3.12670898 16.17944336 C-7.14456307 23.5691002 -11.9215365 30.30999902 -17 37 C-17.66 35.68 -18.32 34.36 -19 33 C-18.01 33 -17.02 33 -16 33 C-16 32.01 -16 31.02 -16 30 C-15.34 30 -14.68 30 -14 30 C-14 28.35 -14 26.7 -14 25 C-12.68 25 -11.36 25 -10 25 C-10 22.36 -10 19.72 -10 17 C-11.65 18.32 -13.3 19.64 -15 21 C-13.6391071 17.78334407 -11.70101943 15.4159083 -9.43359375 12.78515625 C-7.18441805 9.98441158 -5.27658623 6.97000713 -3.33203125 3.953125 C-2 2 -2 2 0 0 Z " fill="#7D624C" transform="translate(438,125)"/>
<path d="M0 0 C2.25747857 2.25747857 2.80472143 3.89414151 3.875 6.875 C5.35599871 10.7278237 6.67854381 13.39028442 10 16 C8.35 16.33 6.7 16.66 5 17 C4.67 16.01 4.34 15.02 4 14 C2.68 14 1.36 14 0 14 C0 15.65 0 17.3 0 19 C-4.02275707 15.91588624 -4.80099232 12.86409245 -5.80078125 8.12109375 C-6 6 -6 6 -5 3 C-2.4375 1.3125 -2.4375 1.3125 0 0 Z " fill="#7F644F" transform="translate(307,234)"/>
<path d="M0 0 C1.8984375 0.73046875 1.8984375 0.73046875 3.8984375 1.73046875 C3.8984375 2.72046875 3.8984375 3.71046875 3.8984375 4.73046875 C2.39568552 5.97187256 0.89058881 7.21080995 -0.63671875 8.421875 C-4.67430093 12.02878174 -4.58792724 17.67972198 -5.1015625 22.73046875 C-5.4315625 22.73046875 -5.7615625 22.73046875 -6.1015625 22.73046875 C-6.12734375 21.95960938 -6.153125 21.18875 -6.1796875 20.39453125 C-6.23640625 19.39164063 -6.293125 18.38875 -6.3515625 17.35546875 C-6.39796875 16.35773438 -6.444375 15.36 -6.4921875 14.33203125 C-6.82317135 11.57782105 -6.82317135 11.57782105 -9.1484375 10.37890625 C-9.79296875 10.16492188 -10.4375 9.9509375 -11.1015625 9.73046875 C-9.74304119 6.64353171 -8.25645297 4.64405141 -5.7265625 2.41796875 C-4.84871094 1.61939453 -4.84871094 1.61939453 -3.953125 0.8046875 C-2.1015625 -0.26953125 -2.1015625 -0.26953125 0 0 Z " fill="#7C624E" transform="translate(174.1015625,197.26953125)"/>
<path d="M0 0 C1.32 0.33 2.64 0.66 4 1 C5.19103774 7.19339623 5.19103774 7.19339623 4.4375 10.375 C3 12 3 12 0.0625 12.8125 C-3 13 -3 13 -6 12 C-8.39490986 11.93029948 -10.79167691 11.91551997 -13.1875 11.9375 C-14.45980469 11.94652344 -15.73210937 11.95554688 -17.04296875 11.96484375 C-18.01878906 11.97644531 -18.99460938 11.98804688 -20 12 C-20 11.67 -20 11.34 -20 11 C-18.78763672 10.94392578 -18.78763672 10.94392578 -17.55078125 10.88671875 C-16.48214844 10.82097656 -15.41351563 10.75523437 -14.3125 10.6875 C-12.72888672 10.60048828 -12.72888672 10.60048828 -11.11328125 10.51171875 C-7.6945843 9.94979993 -5.74802695 9.09004867 -3 7 C-1.80126145 5.23419884 -1.80126145 5.23419884 -1.1875 3.3125 C-0.795625 2.219375 -0.40375 1.12625 0 0 Z " fill="#725A47" transform="translate(211,228)"/>
<path d="M0 0 C-3.39830337 5.25192338 -8.39892216 8.40437856 -14 11 C-14.66 10.67 -15.32 10.34 -16 10 C-15 8 -15 8 -12 6 C-11.01 6 -10.02 6 -9 6 C-9.33 4.68 -9.66 3.36 -10 2 C-13.89224525 1.6229811 -13.89224525 1.6229811 -16.1875 3.5 C-20.12829232 5.6017559 -23.6230601 5.25746705 -28 5 C-28 4.67 -28 4.34 -28 4 C-26.0509375 3.6596875 -26.0509375 3.6596875 -24.0625 3.3125 C-20.30595906 2.52597424 -17.74273043 1.31143961 -14.5625 -0.8125 C-9.29026051 -4.0168293 -5.35649941 -2.38190893 0 0 Z " fill="#6B5642" transform="translate(352,246)"/>
<path d="M0 0 C3.65171405 2.4092483 7.3369957 4.95364619 8.72265625 9.23046875 C8.81417969 9.81441406 8.90570313 10.39835937 9 11 C7.02 10.34 5.04 9.68 3 9 C2.67 9.66 2.34 10.32 2 11 C1 8 1 8 1 5 C0.67 4.34 0.34 3.68 0 3 C-2.97 3 -5.94 3 -9 3 C-9.66 4.32 -10.32 5.64 -11 7 C-11.99 7 -12.98 7 -14 7 C-12.56521739 1.5 -12.56521739 1.5 -10.375 -0.4375 C-6.68198041 -1.31216253 -3.55628177 -1.21746583 0 0 Z " fill="#776452" transform="translate(352,332)"/>
<path d="M0 0 C4.06963335 1.489539 5.32270828 3.7475392 7.3125 7.5 C8.11107422 8.96953125 8.11107422 8.96953125 8.92578125 10.46875 C9.28027344 11.3040625 9.63476562 12.139375 10 13 C9.67 13.66 9.34 14.32 9 15 C7.35 14.67 5.7 14.34 4 14 C3.67 14.99 3.34 15.98 3 17 C0.42714508 11.74242691 -0.94937036 6.89835333 -1 1 C-0.67 0.67 -0.34 0.34 0 0 Z " fill="#675040" transform="translate(67,107)"/>
<path d="M0 0 C0.6875 1.75 0.6875 1.75 1 4 C-2.7141331 10.39656256 -10.95641845 18.42330449 -18.13671875 20.66796875 C-20.0625 20.9375 -20.0625 20.9375 -23 21 C-20.67105228 18.49016314 -18.16392984 16.69703997 -15.3125 14.8125 C-9.34070978 10.69432548 -4.04087467 6.061312 0 0 Z " fill="#7E6754" transform="translate(368,268)"/>
<path d="M0 0 C2.3125 0.1875 2.3125 0.1875 5 1 C8 5.03448276 8 5.03448276 8 8 C7.01 8 6.02 8 5 8 C4.67 6.68 4.34 5.36 4 4 C2.68 4 1.36 4 0 4 C0.33 12.91 0.66 21.82 1 31 C-3.71784132 21.56431736 -3.17210972 9.91284288 0 0 Z " fill="#594639" transform="translate(63,48)"/>
<path d="M0 0 C1.875 1.625 1.875 1.625 3 3 C1.35 3 -0.3 3 -2 3 C-2.33 2.01 -2.66 1.02 -3 0 C-5.3852733 -0.12815365 -5.3852733 -0.12815365 -8 1 C-9.67198768 3.52667787 -10.85805571 6.19936568 -12 9 C-12.66 9 -13.32 9 -14 9 C-13.67 10.175625 -13.34 11.35125 -13 12.5625 C-12.0030467 16.5011676 -11.83130797 19.95139129 -12 24 C-15.66541254 18.5018812 -16.34357529 11.52793043 -16 5 C-15.34 5 -14.68 5 -14 5 C-13.195625 4.030625 -12.39125 3.06125 -11.5625 2.0625 C-7.58117514 -2.69566874 -5.4316464 -2.263186 0 0 Z " fill="#5D483C" transform="translate(379,343)"/>
<path d="M0 0 C0.66 0.33 1.32 0.66 2 1 C1.67 1.99 1.34 2.98 1 4 C-0.66666667 4.66666667 -2.33333333 5.33333333 -4 6 C-4.33 6.99 -4.66 7.98 -5 9 C-7.5625 10.1875 -7.5625 10.1875 -10 11 C-10 11.66 -10 12.32 -10 13 C-11.75 14.6875 -11.75 14.6875 -14 16 C-16.140625 15.58203125 -16.140625 15.58203125 -18 15 C-12.23168342 9.62805961 -6.57365823 4.38243882 0 0 Z " fill="#765F4F" transform="translate(278,318)"/>
<path d="M0 0 C-3.6642778 3.04402244 -7.74793603 4.98653761 -12 7.0625 C-12.7115625 7.41376953 -13.423125 7.76503906 -14.15625 8.12695312 C-15.51698599 8.79843572 -16.87921569 9.46690275 -18.24316406 10.13183594 C-19.62923004 10.81677905 -20.99788981 11.53694402 -22.359375 12.26953125 C-24.55080214 13.2452381 -25.79188267 12.78861333 -28 12 C-25.13942468 9.68902596 -22.41372871 8.17070609 -19 6.8125 C-17.7315625 6.29623047 -17.7315625 6.29623047 -16.4375 5.76953125 C-14 5 -14 5 -10 5 C-10 4.34 -10 3.68 -10 3 C-6.81719857 -0.18280143 -4.38555569 -0.29901516 0 0 Z " fill="#695647" transform="translate(304,348)"/>
<path d="M0 0 C3.26182184 4.89273276 2.82918799 10.30061221 2 16 C0.41973518 22.78326093 -1.77138645 29.40603038 -4 36 C-6 33 -6 33 -5.609375 30.44140625 C-5.32578125 29.49136719 -5.0421875 28.54132813 -4.75 27.5625 C-4.47671875 26.61503906 -4.2034375 25.66757812 -3.921875 24.69140625 C-3.10972178 22.32033181 -2.14235118 20.22230503 -1 18 C0.47218716 12.11125134 0.08776697 6.02666539 0 0 Z " fill="#675344" transform="translate(281,252)"/>
<path d="M0 0 C0.66 0.33 1.32 0.66 2 1 C0.71402098 5.29504321 -0.9098792 8.84260361 -3.3125 12.625 C-3.88613281 13.54539062 -4.45976562 14.46578125 -5.05078125 15.4140625 C-7.10262071 18.13614211 -9.26035734 19.99124307 -12 22 C-12.3125 19.8125 -12.3125 19.8125 -12 17 C-9.6875 14.375 -9.6875 14.375 -7 12 C-4.42335038 9.69941999 -3.71318773 8.36217071 -3 5 C-1.31578947 1.31578947 -1.31578947 1.31578947 0 0 Z " fill="#735E4D" transform="translate(188,352)"/>
<path d="M0 0 C1.8125 1 1.8125 1 3 3 C4.52174726 9.41307772 3.66579425 13.02862089 1 19 C-1.58822834 15.19378185 -0.75520061 12.38016353 0 8 C0.03635763 6.0003305 0.04876598 3.99940538 0 2 C-2.97 2 -5.94 2 -9 2 C-5.53076119 -0.31282587 -4.07794425 -0.42478586 0 0 Z " fill="#635040" transform="translate(155,339)"/>
<path d="M0 0 C1.17246771 4.09902098 1.07076062 7.75436258 1 12 C1.99 12.33 2.98 12.66 4 13 C2.87926138 13.83905565 1.75325453 14.67107831 0.625 15.5 C-0.00148437 15.9640625 -0.62796875 16.428125 -1.2734375 16.90625 C-3 18 -3 18 -5 18 C-4.42934122 11.58008874 -2.32655091 5.98410537 0 0 Z " fill="#634F41" transform="translate(133,326)"/>
<path d="M0 0 C1.14283927 3.42851782 0.57243109 4.6139594 -0.63989258 7.88867188 C-4.54830964 18.44957562 -4.9169029 28.82914288 -5 40 C-5.33 40 -5.66 40 -6 40 C-6.04947698 36.06734104 -6.08575578 32.13480286 -6.10986328 28.2019043 C-6.12485495 26.20680382 -6.15026731 24.21179054 -6.17578125 22.21679688 C-6.18222656 20.96318359 -6.18867188 19.70957031 -6.1953125 18.41796875 C-6.20578613 17.26063232 -6.21625977 16.1032959 -6.22705078 14.91088867 C-6 12 -6 12 -4 9 C-3.67 7.824375 -3.34 6.64875 -3 5.4375 C-2 2 -2 2 0 0 Z " fill="#5B4839" transform="translate(387,278)"/>
<path d="M0 0 C0.33 0 0.66 0 1 0 C1.10957031 0.90621094 1.21914063 1.81242187 1.33203125 2.74609375 C2.16716621 9.16237453 3.04641663 15.1272898 5.51171875 21.1328125 C6.10675031 23.40821319 5.73035421 24.79423226 5 27 C5 26.34 5 25.68 5 25 C4.34 25 3.68 25 3 25 C3 24.01 3 23.02 3 22 C2.34 22 1.68 22 1 22 C-1.53551921 14.54259055 -0.80612738 7.75625262 0 0 Z " fill="#6D5948" transform="translate(362,355)"/>
<path d="M0 0 C3.83564767 1.48453771 7.54792807 3.14573366 11.25 4.9375 C12.83554688 5.69353516 12.83554688 5.69353516 14.453125 6.46484375 C17 8 17 8 18 11 C17 12 17 12 13.9375 12.0625 C12.968125 12.041875 11.99875 12.02125 11 12 C10.67 10.68 10.34 9.36 10 8 C9.34 8 8.68 8 8 8 C8 7.01 8 6.02 8 5 C6.700625 4.87625 5.40125 4.7525 4.0625 4.625 C1.84765625 4.4140625 1.84765625 4.4140625 0 4 C-0.33 3.34 -0.66 2.68 -1 2 C-0.67 1.34 -0.34 0.68 0 0 Z " fill="#896E5A" transform="translate(92,82)"/>
<path d="M0 0 C1 3 1 3 0.00390625 5.48046875 C-0.47175781 6.37378906 -0.94742188 7.26710937 -1.4375 8.1875 C-1.91058594 9.08855469 -2.38367188 9.98960937 -2.87109375 10.91796875 C-3.42990234 11.94857422 -3.42990234 11.94857422 -4 13 C-4.33 13 -4.66 13 -5 13 C-5.08096803 11.54257537 -5.13917774 10.08387193 -5.1875 8.625 C-5.22230469 7.81289062 -5.25710937 7.00078125 -5.29296875 6.1640625 C-5.19628906 5.44992188 -5.09960938 4.73578125 -5 4 C-4.01 3.34 -3.02 2.68 -2 2 C-2.804375 2.165 -3.60875 2.33 -4.4375 2.5 C-8.65887352 3.09247348 -12.74664545 3.08506709 -17 3 C-11.27901246 0.04335518 -6.34551212 -0.10755105 0 0 Z " fill="#604D3F" transform="translate(145,192)"/>
<path d="M0 0 C3.7676746 3.7676746 4.10190861 9.40385969 4.23046875 14.54296875 C4.22654916 16.09120712 4.21215456 17.63945298 4.1875 19.1875 C4.18685547 19.96802734 4.18621094 20.74855469 4.18554688 21.55273438 C4.15546151 25.49391762 3.963589 29.1533527 3 33 C2.67 33 2.34 33 2 33 C1.67 30.03 1.34 27.06 1 24 C1.33 24 1.66 24 2 24 C2 21.69 2 19.38 2 17 C1.67 17 1.34 17 1 17 C1.01740234 15.91332031 1.01740234 15.91332031 1.03515625 14.8046875 C1.08231311 9.75216677 1.07377564 4.96621233 0 0 Z " fill="#604D3D" transform="translate(299,364)"/>
<path d="M0 0 C-0.33 0.99 -0.66 1.98 -1 3 C-3.57170464 3.8962001 -5.98432794 4.58264018 -8.625 5.1875 C-9.67494141 5.45336914 -9.67494141 5.45336914 -10.74609375 5.72460938 C-15.27268402 6.81216678 -19.34865129 7.17701983 -24 7 C-20.32634213 4.55089476 -16.77135062 3.59065459 -12.5625 2.375 C-11.79873047 2.14554687 -11.03496094 1.91609375 -10.24804688 1.6796875 C-9.50748047 1.463125 -8.76691406 1.2465625 -8.00390625 1.0234375 C-7.33174072 0.82669434 -6.6595752 0.62995117 -5.96704102 0.42724609 C-4 0 -4 0 0 0 Z " fill="#7B6553" transform="translate(409,90)"/>
<path d="M0 0 C0.99 0.66 1.98 1.32 3 2 C-2.28018728 6.82104056 -7.7868189 10.47461354 -14 14 C-14.33 12.68 -14.66 11.36 -15 10 C-12.625 8.9375 -12.625 8.9375 -10 8 C-9.34 8.33 -8.68 8.66 -8 9 C-7.34 7.68 -6.68 6.36 -6 5 C-5.01 5 -4.02 5 -3 5 C-3 4.34 -3 3.68 -3 3 C-1.5 1.375 -1.5 1.375 0 0 Z " fill="#7E6652" transform="translate(265,437)"/>
<path d="M0 0 C1.48168945 1.13989258 1.48168945 1.13989258 3 3 C3.34057617 5.63549805 3.34057617 5.63549805 3.29296875 8.76171875 C3.28330078 9.87998047 3.27363281 10.99824219 3.26367188 12.15039062 C3.23853516 13.31763672 3.21339844 14.48488281 3.1875 15.6875 C3.16719727 17.45577148 3.16719727 17.45577148 3.14648438 19.25976562 C3.11109326 22.17363411 3.06171809 25.08658945 3 28 C2.67 28 2.34 28 2 28 C1.21226083 24.46498542 0.82504198 21.09750212 0.68359375 17.48046875 C0.64169922 16.45888672 0.59980469 15.43730469 0.55664062 14.38476562 C0.51732422 13.32966797 0.47800781 12.27457031 0.4375 11.1875 C0.39431641 10.11306641 0.35113281 9.03863281 0.30664062 7.93164062 C0.20089017 5.28787918 0.09879767 2.6440289 0 0 Z " fill="#7A6351" transform="translate(376,219)"/>
<path d="M0 0 C0.99 0.33 1.98 0.66 3 1 C2.0919838 2.13199353 1.17316174 3.25532363 0.25 4.375 C-0.26046875 5.00148437 -0.7709375 5.62796875 -1.296875 6.2734375 C-3.08199481 8.08312318 -4.67949644 9.00117455 -7 10 C-8.65 8.02 -10.3 6.04 -12 4 C-10.3603125 4.061875 -10.3603125 4.061875 -8.6875 4.125 C-4.91107771 4.32074666 -4.91107771 4.32074666 -2 2 C-1.34 2.33 -0.68 2.66 0 3 C0 2.01 0 1.02 0 0 Z " fill="#745E4C" transform="translate(293,232)"/>
<path d="M0 0 C2.64 0.66 5.28 1.32 8 2 C8 2.99 8 3.98 8 5 C8.99 5 9.98 5 11 5 C12.02611949 6.65071396 13.02308143 8.31970006 14 10 C16.06954847 11.78344178 16.06954847 11.78344178 18 13 C15.03 13 12.06 13 9 13 C8.67 12.01 8.34 11.02 8 10 C8.66 9.67 9.32 9.34 10 9 C9.278125 8.43410156 8.55625 7.86820313 7.8125 7.28515625 C6.884375 6.55167969 5.95625 5.81820312 5 5.0625 C4.071875 4.33160156 3.14375 3.60070312 2.1875 2.84765625 C1.465625 2.23792969 0.74375 1.62820312 0 1 C0 0.67 0 0.34 0 0 Z " fill="#624E3C" transform="translate(104,144)"/>
<path d="M0 0 C0.66 0 1.32 0 2 0 C1.40632048 3.53832993 0.06937798 5.4154022 -2.3125 8.0625 C-2.90675781 8.73410156 -3.50101563 9.40570313 -4.11328125 10.09765625 C-5.95962303 11.95928864 -7.86357492 13.48610938 -10 15 C-10.33 14.01 -10.66 13.02 -11 12 C-10.34 11.34 -9.68 10.68 -9 10 C-8.34 10.33 -7.68 10.66 -7 11 C-7 9.35 -7 7.7 -7 6 C-6.21625 5.938125 -5.4325 5.87625 -4.625 5.8125 C-3.75875 5.544375 -2.8925 5.27625 -2 5 C-0.62533375 2.52363988 -0.62533375 2.52363988 0 0 Z " fill="#806956" transform="translate(145,368)"/>
<path d="M0 0 C0.66 0.33 1.32 0.66 2 1 C0.58036591 6.67853635 -2.39363961 10.53174216 -6 15 C-6.66 14.67 -7.32 14.34 -8 14 C-7.40312566 10.65750371 -6.26396123 8.53563658 -4 6 C-3.34 6 -2.68 6 -2 6 C-1.855625 5.195625 -1.71125 4.39125 -1.5625 3.5625 C-1 1 -1 1 0 0 Z " fill="#705B4B" transform="translate(297,403)"/>
<path d="M0 0 C6.75 1.875 6.75 1.875 9 3 C11.0374763 3.22858114 13.08040303 3.41024278 15.125 3.5625 C16.76855469 3.68818359 16.76855469 3.68818359 18.4453125 3.81640625 C19.28835937 3.87699219 20.13140625 3.93757812 21 4 C21 3.34 21 2.68 21 2 C22.98 2 24.96 2 27 2 C23.65773348 5.34226652 19.92107501 5.96896942 15.33984375 6.04296875 C9.17350621 5.67824727 5.08492359 4.50294736 0 1 C0 0.67 0 0.34 0 0 Z " fill="#564636" transform="translate(179,246)"/>
<path d="M0 0 C1.27230469 0.00902344 2.54460937 0.01804688 3.85546875 0.02734375 C5.31919922 0.04474609 5.31919922 0.04474609 6.8125 0.0625 C6.8125 0.3925 6.8125 0.7225 6.8125 1.0625 C2.5225 1.0625 -1.7675 1.0625 -6.1875 1.0625 C-6.1875 1.7225 -6.1875 2.3825 -6.1875 3.0625 C-12.8125 7.0625 -12.8125 7.0625 -16.1875 7.0625 C-16.1875 7.7225 -16.1875 8.3825 -16.1875 9.0625 C-16.8475 9.0625 -17.5075 9.0625 -18.1875 9.0625 C-16.68114535 4.84470697 -13.94737578 3.2877326 -10.1875 1.0625 C-6.62704823 -0.12431726 -3.74941663 -0.03439832 0 0 Z " fill="#665343" transform="translate(260.1875,237.9375)"/>
<path d="M0 0 C0.66 0.33 1.32 0.66 2 1 C0.66439842 4.74765815 -0.9926468 7.6163817 -3.4375 10.75 C-4.03433594 11.52859375 -4.63117188 12.3071875 -5.24609375 13.109375 C-7 15 -7 15 -10 16 C-9.75 14.125 -9.75 14.125 -9 12 C-6.9375 10.75 -6.9375 10.75 -5 10 C-5 9.34 -5 8.68 -5 8 C-4.34 8 -3.68 8 -3 8 C-2.87625 7.4225 -2.7525 6.845 -2.625 6.25 C-1.99351176 3.97664233 -1.11141809 2.0746471 0 0 Z " fill="#6E594A" transform="translate(270,298)"/>
<path d="M0 0 C2.64465038 3.1254959 3.84414715 6.08788267 5 10 C3.02 10.33 1.04 10.66 -1 11 C-1 9.02 -1 7.04 -1 5 C-1.66 4.67 -2.32 4.34 -3 4 C-2.67 3.01 -2.34 2.02 -2 1 C-1.34 0.67 -0.68 0.34 0 0 Z " fill="#997659" transform="translate(168,223)"/>
<path d="M0 0 C1.99954746 -0.04254356 4.00041636 -0.04080783 6 0 C7 1 7 1 7.0625 3.5625 C7.041875 4.366875 7.02125 5.17125 7 6 C5.35 5.01 3.7 4.02 2 3 C2.16113281 3.56589844 2.32226562 4.13179687 2.48828125 4.71484375 C3.01386635 7.06192223 3.16717566 9.1601634 3.1875 11.5625 C3.20167969 12.32691406 3.21585937 13.09132812 3.23046875 13.87890625 C3 16 3 16 1 19 C1.01160156 18.29875 1.02320313 17.5975 1.03515625 16.875 C1.08971184 11.13886898 0.85618377 5.67221747 0 0 Z " fill="#6A5545" transform="translate(353,210)"/>
<path d="M0 0 C-0.75 4.75 -0.75 4.75 -3 7 C-4.32 7 -5.64 7 -7 7 C-7.33 7.66 -7.66 8.32 -8 9 C-8.19878036 5.42195344 -8.04108797 3.00791911 -6 0 C-3 -1 -3 -1 0 0 Z M-9 2 C-7 3 -7 3 -7 3 Z " fill="#98795C" transform="translate(344,247)"/>
<path d="M0 0 C1.32 0.66 2.64 1.32 4 2 C4 4.64 4 7.28 4 10 C3.01 10.495 3.01 10.495 2 11 C1.34 10.67 0.68 10.34 0 10 C-0.44921875 7.96875 -0.44921875 7.96875 -0.6875 5.5 C-0.77386719 4.6853125 -0.86023438 3.870625 -0.94921875 3.03125 C-0.96597656 2.3609375 -0.98273438 1.690625 -1 1 C-0.67 0.67 -0.34 0.34 0 0 Z " fill="#745E4E" transform="translate(67,107)"/>
<path d="M0 0 C0.66 0 1.32 0 2 0 C2 5.28 2 10.56 2 16 C1.34 16.33 0.68 16.66 0 17 C-1.8198497 11.54045091 -1.37745568 5.50982274 0 0 Z " fill="#6E5B4B" transform="translate(219,380)"/>
<path d="M0 0 C2.95183101 2.95183101 3.08663988 5.95511947 4 10 C3.34 10 2.68 10 2 10 C-1 6.53846154 -1 6.53846154 -1 4 C-1.99 4 -2.98 4 -4 4 C-4 6.64 -4 9.28 -4 12 C-5.48873294 9.63554179 -6.00636486 8.26095932 -5.9375 5.4375 C-4.69714969 2.2125892 -3.03908161 1.48057822 0 0 Z " fill="#614D3E" transform="translate(307,234)"/>
<path d="M0 0 C1.27536756 0.61569468 2.54580592 1.24165296 3.8125 1.875 C3.8125 2.865 3.8125 3.855 3.8125 4.875 C0.8125 7.0625 0.8125 7.0625 -2.1875 8.875 C-2.1875 6.895 -2.1875 4.915 -2.1875 2.875 C-3.8375 3.535 -5.4875 4.195 -7.1875 4.875 C-2.76812376 -0.1581785 -2.76812376 -0.1581785 0 0 Z " fill="#635043" transform="translate(174.1875,197.125)"/>
<path d="M0 0 C0.99 0 1.98 0 3 0 C2.43102154 4.32265577 0.87210245 7.18143334 -1.5 10.8125 C-2.44359375 12.27623047 -2.44359375 12.27623047 -3.40625 13.76953125 C-4.19515625 14.87361328 -4.19515625 14.87361328 -5 16 C-5.33 16 -5.66 16 -6 16 C-6 14.35 -6 12.7 -6 11 C-5.01 10.67 -4.02 10.34 -3 10 C-3 9.34 -3 8.68 -3 8 C-2.34 8 -1.68 8 -1 8 C-0.67 5.36 -0.34 2.72 0 0 Z " fill="#776150" transform="translate(279,417)"/>
<path d="M0 0 C2.97 0.33 5.94 0.66 9 1 C9 1.66 9 2.32 9 3 C9.66 3 10.32 3 11 3 C11 4.32 11 5.64 11 7 C7.87691494 6.39196574 5.80748338 5.37985958 3.25 3.5 C2.63640625 3.0565625 2.0228125 2.613125 1.390625 2.15625 C0.93171875 1.7746875 0.4728125 1.393125 0 1 C0 0.67 0 0.34 0 0 Z " fill="#756355" transform="translate(377,339)"/>
<path d="M0 0 C0.66 0 1.32 0 2 0 C1.52723188 5.05786842 0.0138679 7.87083861 -3.0625 11.875 C-3.79597656 12.84179688 -4.52945312 13.80859375 -5.28515625 14.8046875 C-5.85105469 15.52914062 -6.41695313 16.25359375 -7 17 C-7.66 15.68 -8.32 14.36 -9 13 C-8.01 13 -7.02 13 -6 13 C-6 12.01 -6 11.02 -6 10 C-5.34 10 -4.68 10 -4 10 C-4 8.35 -4 6.7 -4 5 C-2.68 5 -1.36 5 0 5 C0 3.35 0 1.7 0 0 Z " fill="#775A4A" transform="translate(428,145)"/>
<path d="M0 0 C0.33 0.99 0.66 1.98 1 3 C-0.69179328 5.04219706 -1.63727666 5.91793306 -4.26171875 6.51171875 C-5.06222656 6.56972656 -5.86273438 6.62773437 -6.6875 6.6875 C-7.49574219 6.75324219 -8.30398438 6.81898438 -9.13671875 6.88671875 C-10.05904297 6.94279297 -10.05904297 6.94279297 -11 7 C-7.64143862 3.59386693 -4.84410701 0.86501911 0 0 Z " fill="#806653" transform="translate(420,150)"/>
<path d="M0 0 C0.66 0.66 1.32 1.32 2 2 C1.75 5.5625 1.75 5.5625 1 9 C0.01 9.495 0.01 9.495 -1 10 C-1 9.34 -1 8.68 -1 8 C-2.65 8.33 -4.3 8.66 -6 9 C-4.47291037 5.56404834 -2.40072955 2.88087546 0 0 Z " fill="#816652" transform="translate(355,110)"/>
<path d="M0 0 C2.3125 0.1875 2.3125 0.1875 5 1 C8 5.03448276 8 5.03448276 8 8 C7.01 8 6.02 8 5 8 C4.67 6.68 4.34 5.36 4 4 C2.68 4 1.36 4 0 4 C-0.33 5.32 -0.66 6.64 -1 8 C-1.125 2.25 -1.125 2.25 0 0 Z " fill="#645344" transform="translate(63,48)"/>
<path d="M0 0 C0.33 0 0.66 0 1 0 C1.02578125 0.77085937 1.0515625 1.54171875 1.078125 2.3359375 C1.13484375 3.33882813 1.1915625 4.34171875 1.25 5.375 C1.29640625 6.37273437 1.3428125 7.37046875 1.390625 8.3984375 C1.71812004 11.12746299 1.71812004 11.12746299 3.921875 12.2890625 C4.60765625 12.52367187 5.2934375 12.75828125 6 13 C6.66 13.33 7.32 13.66 8 14 C7.67 14.66 7.34 15.32 7 16 C4.6875 16.3125 4.6875 16.3125 2 16 C0.125 14.1875 0.125 14.1875 -1 11 C-0.94267449 7.28947588 -0.53345617 3.66992138 0 0 Z " fill="#5E4B3C" transform="translate(123,372)"/>
<path d="M0 0 C2.97 0.495 2.97 0.495 6 1 C6.66 4.96 7.32 8.92 8 13 C4.18888929 9.18888929 2.41215638 6.65201587 0 2 C0 1.34 0 0.68 0 0 Z " fill="#735744" transform="translate(345,376)"/>
<path d="M0 0 C4.28904235 1.5885342 6.32345526 4.43127368 9 8 C9 8.66 9 9.32 9 10 C7.02 9.34 5.04 8.68 3 8 C2.67 8.66 2.34 9.32 2 10 C1 7 1 7 2 4 C1.12516085 1.83284443 1.12516085 1.83284443 0 0 Z " fill="#755E48" transform="translate(352,333)"/>
<path d="M0 0 C-0.33 0.66 -0.66 1.32 -1 2 C-2.98 2 -4.96 2 -7 2 C-7.103125 2.78375 -7.20625 3.5675 -7.3125 4.375 C-8 7 -8 7 -11 9 C-11.33 6.69 -11.66 4.38 -12 2 C-10.75579353 1.4654744 -9.50429064 0.94791389 -8.25 0.4375 C-7.55390625 0.14746094 -6.8578125 -0.14257812 -6.140625 -0.44140625 C-3.69987216 -1.07831803 -2.3596345 -0.80248831 0 0 Z " fill="#644F3E" transform="translate(384,207)"/>
<path d="M0 0 C0 0.33 0 0.66 0 1 C-1.98 1 -3.96 1 -6 1 C-6.33 3.97 -6.66 6.94 -7 10 C-7.99 10.33 -8.98 10.66 -10 11 C-10.32469403 6.34605219 -9.79790518 3.76641082 -7 0 C-4.3333581 -1.33332095 -2.83319697 -0.67102033 0 0 Z " fill="#6F594A" transform="translate(232,364)"/>
<path d="M0 0 C0.66 0.33 1.32 0.66 2 1 C0.63016497 4.16115776 0.0109362 4.9927092 -3 7 C-6.1875 6.625 -6.1875 6.625 -9 6 C-6.45368965 3.02930459 -3.57769851 1.5224249 0 0 Z " fill="#775F4D" transform="translate(292,310)"/>
<path d="M0 0 C1.32 0.66 2.64 1.32 4 2 C3.19185349 3.33597652 2.37836819 4.668725 1.5625 6 C1.11003906 6.7425 0.65757812 7.485 0.19140625 8.25 C-0.20175781 8.8275 -0.59492188 9.405 -1 10 C-1.33 10 -1.66 10 -2 10 C-2.33 7.36 -2.66 4.72 -3 2 C-2.01 1.34 -1.02 0.68 0 0 Z " fill="#7E624E" transform="translate(429,121)"/>
<path d="M0 0 C1.79275866 3.11910856 2.34290718 5.67682428 2.625 9.25 C2.69976562 10.14203125 2.77453125 11.0340625 2.8515625 11.953125 C2.92503906 12.96632813 2.92503906 12.96632813 3 14 C4.32 14.33 5.64 14.66 7 15 C4.6875 15.25 4.6875 15.25 2 15 C0.1875 13.4375 0.1875 13.4375 -1 11 C-1.27585754 7.13799438 -1.18391699 3.69974059 0 0 Z " fill="#635243" transform="translate(186,376)"/>
<path d="M0 0 C5.875 4.75 5.875 4.75 7 7 C7.12114921 8.64255791 7.17540767 10.29052478 7.1875 11.9375 C7.20167969 12.81277344 7.21585938 13.68804687 7.23046875 14.58984375 C7 17 7 17 5 20 C5.04640625 19.24074219 5.0928125 18.48148437 5.140625 17.69921875 C5.17671875 16.70535156 5.2128125 15.71148437 5.25 14.6875 C5.29640625 13.70136719 5.3428125 12.71523438 5.390625 11.69921875 C5.28642383 8.86825188 5.28642383 8.86825188 3.03125 7.34375 C2.3609375 6.9003125 1.690625 6.456875 1 6 C0.25 2.8125 0.25 2.8125 0 0 Z " fill="#594536" transform="translate(185,333)"/>
<path d="M0 0 C0.66 0.33 1.32 0.66 2 1 C1.52797514 5.24822374 -0.96655518 7.19989709 -4 10 C-4.8125 7.8125 -4.8125 7.8125 -5 5 C-2.5625 2.1875 -2.5625 2.1875 0 0 Z " fill="#7F654E" transform="translate(136,345)"/>
<path d="M0 0 C0.79341797 0.00193359 1.58683594 0.00386719 2.40429688 0.00585938 C3.22865234 0.01810547 4.05300781 0.03035156 4.90234375 0.04296875 C5.73056641 0.04361328 6.55878906 0.04425781 7.41210938 0.04492188 C13.55877439 0.08993407 13.55877439 0.08993407 15.83984375 1.23046875 C15.83984375 1.89046875 15.83984375 2.55046875 15.83984375 3.23046875 C14.32390625 2.98296875 14.32390625 2.98296875 12.77734375 2.73046875 C6.17542667 1.88284468 -0.51702585 2.15261957 -7.16015625 2.23046875 C-4.08871492 0.1828412 -3.46164666 -0.01960075 0 0 Z " fill="#624D3E" transform="translate(344.16015625,327.76953125)"/>
<path d="M0 0 C0.33 1.98 0.66 3.96 1 6 C-2.62528568 6.20140476 -4.86501708 5.85776765 -8 4 C-3.375 0 -3.375 0 0 0 Z " fill="#987960" transform="translate(351,240)"/>
<path d="M0 0 C0.99 0.33 1.98 0.66 3 1 C2.57847656 1.43570313 2.15695313 1.87140625 1.72265625 2.3203125 C-1.76365195 6.11013459 -3.73880963 8.64559734 -4 14 C-4.66 14 -5.32 14 -6 14 C-5.50437849 9.04378488 -4.55784896 5.29718625 -2 1 C-1.34 0.67 -0.68 0.34 0 0 Z " fill="#6A5445" transform="translate(126,195)"/>
<path d="M0 0 C0.99 0 1.98 0 3 0 C1.61811547 3.21043882 0.07578097 5.04936365 -2.625 7.25 C-3.57246094 8.03117188 -3.57246094 8.03117188 -4.5390625 8.828125 C-5.02117187 9.21484375 -5.50328125 9.6015625 -6 10 C-6.33 8.35 -6.66 6.7 -7 5 C-4.69 4.34 -2.38 3.68 0 3 C0 2.01 0 1.02 0 0 Z " fill="#836956" transform="translate(406,173)"/>
<path d="M0 0 C4.14325595 4.89657521 5.30217221 9.65438369 5 16 C4.67 14.68 4.34 13.36 4 12 C3.34 12 2.68 12 2 12 C0.5216774 9.04335481 0.93967217 6.25770263 1 3 C0.34 3 -0.32 3 -1 3 C-0.67 2.01 -0.34 1.02 0 0 Z " fill="#6B5445" transform="translate(388,354)"/>
<path d="M0 0 C1.32 0 2.64 0 4 0 C6.25 2.5 6.25 2.5 8 5 C4.99727245 5.96516243 2.95784231 6.22393475 0 5 C-0.33 4.01 -0.66 3.02 -1 2 C-0.67 1.34 -0.34 0.68 0 0 Z " fill="#9B785D" transform="translate(307,248)"/>
<path d="M0 0 C0.66 0.33 1.32 0.66 2 1 C-1.43448911 5.18111718 -5.90085222 7.39544192 -11 9 C-11.66 8.67 -12.32 8.34 -13 8 C-11.3990869 6.84962529 -9.79414775 5.70485184 -8.1875 4.5625 C-7.29417969 3.92441406 -6.40085937 3.28632813 -5.48046875 2.62890625 C-3 1 -3 1 0 0 Z " fill="#695343" transform="translate(331,217)"/>
<path d="M0 0 C0.99 0 1.98 0 3 0 C3 0.66 3 1.32 3 2 C2.34 2 1.68 2 1 2 C1 3.65 1 5.3 1 7 C0.34 7 -0.32 7 -1 7 C-1.33 8.32 -1.66 9.64 -2 11 C-2.66 11 -3.32 11 -4 11 C-4 10.01 -4 9.02 -4 8 C-3.34 8 -2.68 8 -2 8 C-2.04125 7.05125 -2.0825 6.1025 -2.125 5.125 C-2 2 -2 2 0 0 Z " fill="#816959" transform="translate(436,127)"/>
<path d="M0 0 C2.625 0.9375 2.625 0.9375 5 2 C5 2.99 5 3.98 5 5 C4.38125 5.12375 3.7625 5.2475 3.125 5.375 C0.80879168 5.87197356 0.80879168 5.87197356 -1 8 C-1.33 5.69 -1.66 3.38 -2 1 C-1.34 0.67 -0.68 0.34 0 0 Z " fill="#806853" transform="translate(73,120)"/>
<path d="M0 0 C1.1055189 0.93590504 2.20935453 1.87379858 3.3125 2.8125 C3.92738281 3.33457031 4.54226562 3.85664063 5.17578125 4.39453125 C6.85424679 5.87172469 8.43882034 7.40039131 10 9 C4.70251618 8.73946801 4.70251618 8.73946801 2 8 C-0.0625 5.625 -0.0625 5.625 -1 3 C-0.67 2.01 -0.34 1.02 0 0 Z " fill="#6E5745" transform="translate(171,226)"/>
<path d="M0 0 C0 0.33 0 0.66 0 1 C-1.7015625 1.2165625 -1.7015625 1.2165625 -3.4375 1.4375 C-6.80777201 1.61171478 -6.80777201 1.61171478 -8 3 C-10.35313555 3.07271741 -12.70833668 3.08370868 -15.0625 3.0625 C-16.35285156 3.05347656 -17.64320313 3.04445313 -18.97265625 3.03515625 C-19.97167969 3.02355469 -20.97070312 3.01195313 -22 3 C-22 2.67 -22 2.34 -22 2 C-14.58851545 0.71702277 -7.52719602 -0.25515919 0 0 Z " fill="#967A65" transform="translate(232,94)"/>
<path d="M0 0 C0.66 0.33 1.32 0.66 2 1 C1.01 1.33 0.02 1.66 -1 2 C-0.67 2.99 -0.34 3.98 0 5 C-3.47325181 6.1577506 -6.36067448 6.06866652 -10 6 C-7.31100548 2.67830089 -3.94687492 1.43522725 0 0 Z " fill="#6B5442" transform="translate(304,304)"/>
<path d="M0 0 C4.75481646 0.57634139 7.97048212 2.55068521 12 5 C9.3260876 5.89130413 6.76276177 6.47731534 4 7 C3.896875 6.360625 3.79375 5.72125 3.6875 5.0625 C3.460625 4.381875 3.23375 3.70125 3 3 C2.01 2.67 1.02 2.34 0 2 C0 1.34 0 0.68 0 0 Z " fill="#735E4A" transform="translate(216,302)"/>
<path d="M0 0 C7.59 0.33 15.18 0.66 23 1 C23 1.33 23 1.66 23 2 C14.42 2.33 5.84 2.66 -3 3 C-2.01 2.67 -1.02 2.34 0 2 C0 1.34 0 0.68 0 0 Z " fill="#422F23" transform="translate(135,179)"/>
<path d="M0 0 C0.99 0.33 1.98 0.66 3 1 C2.39254603 5.85963179 0.27241033 9.7405518 -2 14 C-2.33 14 -2.66 14 -3 14 C-3 12.35 -3 10.7 -3 9 C-2.34 9 -1.68 9 -1 9 C-1 7.35 -1 5.7 -1 4 C-0.34 4 0.32 4 1 4 C1 3.34 1 2.68 1 2 C0.34 1.67 -0.32 1.34 -1 1 C-0.67 0.67 -0.34 0.34 0 0 Z " fill="#53453A" transform="translate(438,125)"/>
<path d="M0 0 C1.32 0.33 2.64 0.66 4 1 C4.625 2.8125 4.625 2.8125 5 5 C4.01 6.485 4.01 6.485 3 8 C2.34 7.67 1.68 7.34 1 7 C1.33 6.01 1.66 5.02 2 4 C0.68 4 -0.64 4 -2 4 C-1.34 2.68 -0.68 1.36 0 0 Z " fill="#99785C" transform="translate(75,124)"/>
<path d="M0 0 C-0.66 0.61875 -1.32 1.2375 -2 1.875 C-4.2284549 3.75637427 -4.2284549 3.75637427 -4 6 C-5.65 5.67 -7.3 5.34 -9 5 C-9 4.01 -9 3.02 -9 2 C-3.375 -1.125 -3.375 -1.125 0 0 Z " fill="#6D5444" transform="translate(296,361)"/>
<path d="M0 0 C2.475 0.495 2.475 0.495 5 1 C5.33 1.66 5.66 2.32 6 3 C4.68 2.67 3.36 2.34 2 2 C2 7.61 2 13.22 2 19 C1.67 19 1.34 19 1 19 C0.67 12.73 0.34 6.46 0 0 Z " fill="#4C3D33" transform="translate(181,203)"/>
<path d="M0 0 C0.33 1.32 0.66 2.64 1 4 C0.34 4 -0.32 4 -1 4 C-1 4.70125 -1 5.4025 -1 6.125 C-2.55233238 10.58795558 -6.16489997 12.45782663 -10 15 C-8.19691722 11.13625118 -5.73608189 8.26995153 -3 5 C-1.96344932 3.35581617 -0.94815429 1.69669715 0 0 Z " fill="#533F30" transform="translate(433,131)"/>
<path d="M0 0 C-1.66302124 3.32604248 -4.62976481 3.80042476 -8 5 C-10.4375 4.6875 -10.4375 4.6875 -12 4 C-8.15336308 0.86570325 -4.95471579 -1.65157193 0 0 Z " fill="#796253" transform="translate(288,356)"/>
<path d="M0 0 C0.99 0.33 1.98 0.66 3 1 C-0.18595135 3.63978826 -3.30970546 6.10498388 -7 8 C-7.66 7.67 -8.32 7.34 -9 7 C-8 4 -8 4 -6.1875 2.8125 C-4 2 -4 2 0 2 C0 1.34 0 0.68 0 0 Z " fill="#6E5847" transform="translate(316,338)"/>
<path d="M0 0 C1.32 0.33 2.64 0.66 4 1 C0.04 3.64 -3.92 6.28 -8 9 C-8.33 8.01 -8.66 7.02 -9 6 C-8.34 5.34 -7.68 4.68 -7 4 C-5.68 4 -4.36 4 -3 4 C-3 3.34 -3 2.68 -3 2 C-2.01 2 -1.02 2 0 2 C0 1.34 0 0.68 0 0 Z " fill="#675243" transform="translate(318,213)"/>
<path d="M0 0 C0.598125 0.33 1.19625 0.66 1.8125 1 C4.05386471 2.20787988 4.05386471 2.20787988 7 2 C8.0625 3.8125 8.0625 3.8125 9 6 C8.67 6.99 8.34 7.98 8 9 C6.66368764 7.6905332 5.33102075 6.37734515 4 5.0625 C3.2575 4.33160156 2.515 3.60070312 1.75 2.84765625 C0 1 0 1 0 0 Z " fill="#64503F" transform="translate(207,210)"/>
<path d="M0 0 C2.31 0.66 4.62 1.32 7 2 C7 3.32 7 4.64 7 6 C8.32 6.33 9.64 6.66 11 7 C10.01 7.495 10.01 7.495 9 8 C4.34829356 6.21849541 2.18018186 4.48148494 0 0 Z " fill="#705948" transform="translate(329,389)"/>
<path d="M0 0 C-0.33 0.99 -0.66 1.98 -1 3 C-1.94875 2.979375 -2.8975 2.95875 -3.875 2.9375 C-6.90666283 2.77448174 -6.90666283 2.77448174 -9 4 C-10.99960012 4.039992 -13.00047242 4.04346799 -15 4 C-15 3.34 -15 2.68 -15 2 C-12.87528825 1.6648342 -10.75022095 1.33192171 -8.625 1 C-7.44164062 0.814375 -6.25828125 0.62875 -5.0390625 0.4375 C-2 0 -2 0 0 0 Z " fill="#957A62" transform="translate(335,250)"/>
<path d="M0 0 C1.32 0 2.64 0 4 0 C4 0.66 4 1.32 4 2 C4.66 2.33 5.32 2.66 6 3 C5.67 3.66 5.34 4.32 5 5 C2.03 4.505 2.03 4.505 -1 4 C-0.67 2.68 -0.34 1.36 0 0 Z " fill="#977960" transform="translate(385,393)"/>
<path d="M0 0 C3.63964113 1.91560059 5.4080399 3.20378745 7 7 C7.66 7.66 8.32 8.32 9 9 C7.68 9 6.36 9 5 9 C5 8.34 5 7.68 5 7 C4.34 7 3.68 7 3 7 C0 2.61538462 0 2.61538462 0 0 Z " fill="#705947" transform="translate(248,329)"/>
<path d="M0 0 C1.1725131 0.95117134 2.33787015 1.91117009 3.5 2.875 C4.47453125 3.67550781 4.47453125 3.67550781 5.46875 4.4921875 C5.9740625 4.98976563 6.479375 5.48734375 7 6 C7 6.66 7 7.32 7 8 C5.02 7.34 3.04 6.68 1 6 C0.67 4.02 0.34 2.04 0 0 Z " fill="#78604E" transform="translate(241,319)"/>
<path d="M0 0 C0.66 0.33 1.32 0.66 2 1 C0.4375 3.4375 0.4375 3.4375 -2 6 C-5.75 6.8125 -5.75 6.8125 -9 7 C-6.3765992 4.08511023 -3.28183606 2.11496102 0 0 Z " fill="#645241" transform="translate(354,282)"/>
<path d="M0 0 C3.45925163 1.2491742 6.14693203 2.67527795 9 5 C8.236875 4.979375 7.47375 4.95875 6.6875 4.9375 C3.89814214 4.87057159 3.89814214 4.87057159 1 6 C0.67 4.02 0.34 2.04 0 0 Z " fill="#745E4B" transform="translate(166,280)"/>
<path d="M0 0 C2.475 0.99 2.475 0.99 5 2 C4.34 2.66 3.68 3.32 3 4 C2.28072705 6.31765729 1.6090107 8.65095874 1 11 C0.67 11 0.34 11 0 11 C0 7.37 0 3.74 0 0 Z " fill="#957B67" transform="translate(183,205)"/>
<path d="M0 0 C1.125 3.75 1.125 3.75 0 6 C-0.66 6 -1.32 6 -2 6 C-1.67 7.32 -1.34 8.64 -1 10 C-1.99 10.33 -2.98 10.66 -4 11 C-4.33 11.99 -4.66 12.98 -5 14 C-4.46515599 8.65155992 -2.53309233 4.64203897 0 0 Z " fill="#6B5543" transform="translate(348,119)"/>
<path d="M0 0 C0.66 0.33 1.32 0.66 2 1 C1.01 1.598125 0.02 2.19625 -1 2.8125 C-1.99 3.534375 -2.98 4.25625 -4 5 C-4 5.99 -4 6.98 -4 8 C-4.99 8 -5.98 8 -7 8 C-7 7.34 -7 6.68 -7 6 C-7.66 5.34 -8.32 4.68 -9 4 C-7.54618103 3.30300448 -6.08677047 2.61766134 -4.625 1.9375 C-3.40683594 1.36322266 -3.40683594 1.36322266 -2.1640625 0.77734375 C-1.44992188 0.52082031 -0.73578125 0.26429687 0 0 Z " fill="#775F4E" transform="translate(187,101)"/>
<path d="M0 0 C4.30764815 1.56641751 8.06171464 3.68336156 12 6 C10.02 6.99 10.02 6.99 8 8 C8 7.01 8 6.02 8 5 C6.700625 4.87625 5.40125 4.7525 4.0625 4.625 C1.84765625 4.4140625 1.84765625 4.4140625 0 4 C-0.33 3.34 -0.66 2.68 -1 2 C-0.67 1.34 -0.34 0.68 0 0 Z " fill="#6A5445" transform="translate(92,82)"/>
<path d="M0 0 C1.32 0.66 2.64 1.32 4 2 C1.22719294 5.08089673 -1.06326356 6.68775452 -5 8 C-4.34 6.35 -3.68 4.7 -3 3 C-1.68 3 -0.36 3 1 3 C0.67 2.01 0.34 1.02 0 0 Z " fill="#705C4B" transform="translate(165,378)"/>
<path d="M0 0 C1.98 0.66 3.96 1.32 6 2 C6.33 4.64 6.66 7.28 7 10 C3.66442368 7.0094833 1.84916079 4.06815373 0 0 Z " fill="#725C4A" transform="translate(315,374)"/>
<path d="M0 0 C7.57142857 4 7.57142857 4 10 8 C8.35 8 6.7 8 5 8 C5 7.34 5 6.68 5 6 C4.34 6 3.68 6 3 6 C2.67 5.01 2.34 4.02 2 3 C1.34 2.67 0.68 2.34 0 2 C0 1.34 0 0.68 0 0 Z " fill="#6E5848" transform="translate(228,308)"/>
<path d="M0 0 C0.99 0 1.98 0 3 0 C4.6875 2.5 4.6875 2.5 6 5 C4.02 5.66 2.04 6.32 0 7 C0 4.69 0 2.38 0 0 Z " fill="#97795F" transform="translate(303,238)"/>
<path d="M0 0 C1 3 1 3 -0.3125 6.125 C-2 9 -2 9 -4 10 C-4.625 8.1875 -4.625 8.1875 -5 6 C-3.42105792 3.63158688 -2.0245738 1.93254772 0 0 Z " fill="#6E5849" transform="translate(337,228)"/>
<path d="M0 0 C0.66 0.33 1.32 0.66 2 1 C1.34 2.65 0.68 4.3 0 6 C-2.97 5.67 -5.94 5.34 -9 5 C-6.06626269 3.04417512 -3.21783702 1.43775696 0 0 Z " fill="#6D5641" transform="translate(407,157)"/>
<path d="M0 0 C5.75 1.625 5.75 1.625 8 5 C4.37673261 6.2077558 3.35853631 5.54311128 0 4 C0 2.68 0 1.36 0 0 Z " fill="#7F6453" transform="translate(327,112)"/>
<path d="M0 0 C0.99 0 1.98 0 3 0 C3.33 1.32 3.66 2.64 4 4 C6.31 4.33 8.62 4.66 11 5 C10.67 5.66 10.34 6.32 10 7 C3.51020408 6.51020408 3.51020408 6.51020408 1.0625 4.0625 C0 2 0 2 0 0 Z " fill="#614E40" transform="translate(249,309)"/>
<path d="M0 0 C0.05447047 1.41623216 0.09300508 2.83308191 0.125 4.25 C0.14820313 5.03890625 0.17140625 5.8278125 0.1953125 6.640625 C0 9 0 9 -2 13 C-1.67 9.04 -1.34 5.08 -1 1 C-2.98 1.99 -2.98 1.99 -5 3 C-5.66 2.34 -6.32 1.68 -7 1 C-4.53721199 -0.231394 -2.7204945 -0.07159196 0 0 Z " fill="#5C473A" transform="translate(340,215)"/>
<path d="M0 0 C1.65 0 3.3 0 5 0 C5.33 1.32 5.66 2.64 6 4 C6.99 4 7.98 4 9 4 C9 4.66 9 5.32 9 6 C5.59687262 4.94124926 2.98646769 3.99097846 0 2 C0 1.34 0 0.68 0 0 Z " fill="#735E4C" transform="translate(176,187)"/>
<path d="M0 0 C1.60520004 0.06023265 3.20934327 0.14908599 4.8125 0.25 C6.15248047 0.31960937 6.15248047 0.31960937 7.51953125 0.390625 C10 1 10 1 11.82421875 3.046875 C12.40623047 4.01367188 12.40623047 4.01367188 13 5 C8.545 4.01 8.545 4.01 4 3 C4 2.34 4 1.68 4 1 C2.68 0.67 1.36 0.34 0 0 Z " fill="#7A6051" transform="translate(154,179)"/>
<path d="M0 0 C0.66 0 1.32 0 2 0 C1.52797514 4.24822374 -0.96655518 6.19989709 -4 9 C-4 7.68 -4 6.36 -4 5 C-3.34 5 -2.68 5 -2 5 C-1.34 3.35 -0.68 1.7 0 0 Z " fill="#715E4C" transform="translate(145,368)"/>
<path d="M0 0 C1.3271261 3.9813783 1.06915913 7.85045227 1 12 C0.01 11.67 -0.98 11.34 -2 11 C-1.125 3.375 -1.125 3.375 0 0 Z " fill="#6F5642" transform="translate(133,326)"/>
<path d="M0 0 C4 4.75 4 4.75 4 7 C3.34 7 2.68 7 2 7 C2 7.66 2 8.32 2 9 C2.66 9.33 3.32 9.66 4 10 C3.01 10 2.02 10 1 10 C-0.60725635 6.78548731 -0.05748185 3.56387464 0 0 Z " fill="#735B48" transform="translate(317,226)"/>
<path d="M0 0 C2.93200474 2.85276137 5.64315404 5.65079784 8 9 C5.03 8.505 5.03 8.505 2 8 C1.34 5.36 0.68 2.72 0 0 Z " fill="#655040" transform="translate(79,125)"/>
<path d="M0 0 C1.98 0.66 3.96 1.32 6 2 C6.33 3.98 6.66 5.96 7 8 C1.125 3.375 1.125 3.375 0 0 Z " fill="#655142" transform="translate(353,389)"/>
<path d="M0 0 C1.32 0 2.64 0 4 0 C2.60667426 3.36720387 1.0210714 4.9859524 -2 7 C-2.33 6.01 -2.66 5.02 -3 4 C-2.34 4 -1.68 4 -1 4 C-0.67 2.68 -0.34 1.36 0 0 Z " fill="#6A5547" transform="translate(241,232)"/>
<path d="M0 0 C0.103125 0.639375 0.20625 1.27875 0.3125 1.9375 C0.539375 2.618125 0.76625 3.29875 1 4 C1.99 4.33 2.98 4.66 4 5 C4 6.65 4 8.3 4 10 C1.03595495 7.19195732 -1.44499019 4.81684226 -3 1 C-2.01 0.67 -1.02 0.34 0 0 Z " fill="#6D5545" transform="translate(227,226)"/>
<path d="M0 0 C0.33 0 0.66 0 1 0 C0.50769231 6.52307692 0.50769231 6.52307692 -2.0625 8.9375 C-2.701875 9.288125 -3.34125 9.63875 -4 10 C-4 8.68 -4 7.36 -4 6 C-3.34 6 -2.68 6 -2 6 C-2 5.01 -2 4.02 -2 3 C-1.34 3 -0.68 3 0 3 C0 2.01 0 1.02 0 0 Z " fill="#5C4B3D" transform="translate(203,219)"/>
<path d="M0 0 C2.4375 0.8125 2.4375 0.8125 5 2 C5.33 2.99 5.66 3.98 6 5 C4.35 5 2.7 5 1 5 C0.67 3.35 0.34 1.7 0 0 Z " fill="#947761" transform="translate(188,385)"/>
<path d="M0 0 C0.66 0.99 1.32 1.98 2 3 C1.71125 3.556875 1.4225 4.11375 1.125 4.6875 C-0.0413253 7.08494645 -1.0339881 9.51596939 -2 12 C-3.12377697 8.69564916 -2.89554742 6.9493138 -1.5625 3.75 C-1.27503906 3.04359375 -0.98757812 2.3371875 -0.69140625 1.609375 C-0.46324219 1.07828125 -0.23507813 0.5471875 0 0 Z " fill="#634E3C" transform="translate(127,360)"/>
<path d="M0 0 C3.8555225 0.88355724 6.47228379 1.91056908 9 5 C7.35 5 5.7 5 4 5 C3.67 4.01 3.34 3.02 3 2 C1.02 2 -0.96 2 -3 2 C-2.01 1.34 -1.02 0.68 0 0 Z " fill="#514234" transform="translate(373,341)"/>
<path d="M0 0 C-3.28463659 2.18975773 -6.20696275 2.99806563 -10 4 C-9.1875 2.0625 -9.1875 2.0625 -8 0 C-4.71023192 -1.09658936 -3.28696233 -0.79953138 0 0 Z " fill="#695544" transform="translate(149,333)"/>
<path d="M0 0 C0 0.66 0 1.32 0 2 C-2.31 2.66 -4.62 3.32 -7 4 C-7.66 3.01 -8.32 2.02 -9 1 C-5.92677456 0.08941469 -3.19902639 -0.08886184 0 0 Z " fill="#987A62" transform="translate(205,240)"/>
<path d="M0 0 C2.475 0.99 2.475 0.99 5 2 C5 2.99 5 3.98 5 5 C2.03 4.505 2.03 4.505 -1 4 C-0.67 2.68 -0.34 1.36 0 0 Z " fill="#7D6250" transform="translate(191,209)"/>
<path d="M0 0 C0.66 0 1.32 0 2 0 C2.33 0.66 2.66 1.32 3 2 C3.99 2.33 4.98 2.66 6 3 C7.6875 5.0625 7.6875 5.0625 9 7 C8.01 7.495 8.01 7.495 7 8 C1.125 3.375 1.125 3.375 0 0 Z " fill="#5F4E40" transform="translate(99,163)"/>
<path d="M0 0 C0.33 1.32 0.66 2.64 1 4 C-0.65 5.32 -2.3 6.64 -4 8 C-4.66 7.67 -5.32 7.34 -6 7 C-4.02 4.69 -2.04 2.38 0 0 Z " fill="#6A5545" transform="translate(368,268)"/>
<path d="M0 0 C1.32 0.33 2.64 0.66 4 1 C3.42655063 3.86724686 3.1385485 4.8614515 1 7 C0.67 4.69 0.34 2.38 0 0 Z " fill="#97785F" transform="translate(355,213)"/>
<path d="M0 0 C0.99 0 1.98 0 3 0 C3.93423645 3.01031744 4.04449911 3.86650268 3 7 C2.34 7 1.68 7 1 7 C0.67 4.69 0.34 2.38 0 0 Z " fill="#977761" transform="translate(82,138)"/>
<path d="M0 0 C2.4375 1.125 2.4375 1.125 5 3 C5.8125 6.1875 5.8125 6.1875 6 9 C0.42857143 3.85714286 0.42857143 3.85714286 0 0 Z " fill="#644D3F" transform="translate(77,135)"/>
<path d="M0 0 C0.99 0.66 1.98 1.32 3 2 C1.35 3.65 -0.3 5.3 -2 7 C-2.66 6.67 -3.32 6.34 -4 6 C-3.0022242 3.00667261 -2.2477975 2.05233685 0 0 Z " fill="#74594A" transform="translate(265,437)"/>
<path d="M0 0 C0.99 0 1.98 0 3 0 C1.70700306 2.88437779 0.34058637 4.87219421 -2 7 C-1.125 1.125 -1.125 1.125 0 0 Z " fill="#76604F" transform="translate(208,372)"/>
<path d="M0 0 C1 2 1 2 0.25 5.0625 C-0.1625 6.031875 -0.575 7.00125 -1 8 C-1.99 8.33 -2.98 8.66 -4 9 C-2.94124926 5.59687262 -1.99097846 2.98646769 0 0 Z " fill="#634E3F" transform="translate(153,368)"/>
<path d="M0 0 C4.75 0.75 4.75 0.75 7 3 C6.67 3.99 6.34 4.98 6 6 C3.97945196 4.35830472 1.97956942 2.69088222 0 1 C0 0.67 0 0.34 0 0 Z " fill="#6A5644" transform="translate(217,346)"/>
<path d="M0 0 C0.66 0.33 1.32 0.66 2 1 C2 1.99 2 2.98 2 4 C2.66 4 3.32 4 4 4 C3.67 5.32 3.34 6.64 3 8 C3 7.34 3 6.68 3 6 C1.68 5.67 0.36 5.34 -1 5 C-0.67 3.35 -0.34 1.7 0 0 Z " fill="#856A55" transform="translate(383,334)"/>
<path d="M0 0 C0.598125 0.350625 1.19625 0.70125 1.8125 1.0625 C-2.9375 4.0625 -2.9375 4.0625 -5.1875 4.0625 C-5.1875 2.7425 -5.1875 1.4225 -5.1875 0.0625 C-2.1875 -0.9375 -2.1875 -0.9375 0 0 Z " fill="#77624D" transform="translate(325.1875,333.9375)"/>
<path d="M0 0 C0.66 0 1.32 0 2 0 C1.75 1.875 1.75 1.875 1 4 C-1.0625 5.25 -1.0625 5.25 -3 6 C-2.42655063 3.13275314 -2.1385485 2.1385485 0 0 Z " fill="#776254" transform="translate(263,308)"/>
<path d="M0 0 C1.45606519 4.52092968 0.27032841 7.51648796 -1 12 C-1.66 11.34 -2.32 10.68 -3 10 C-2.67 9.67 -2.34 9.34 -2 9 C-2.020625 7.865625 -2.04125 6.73125 -2.0625 5.5625 C-2 2 -2 2 0 0 Z " fill="#947A65" transform="translate(381,292)"/>
<path d="M0 0 C0.99 0.33 1.98 0.66 3 1 C1.37660195 2.70884005 -0.29319053 4.37446717 -2 6 C-2.66 6 -3.32 6 -4 6 C-4 5.01 -4 4.02 -4 3 C-2.68 2.67 -1.36 2.34 0 2 C0 1.34 0 0.68 0 0 Z " fill="#6D5C4D" transform="translate(389,189)"/>
<path d="M0 0 C1.11375 0.598125 2.2275 1.19625 3.375 1.8125 C4.00148438 2.14894531 4.62796875 2.48539063 5.2734375 2.83203125 C7 4 7 4 9 7 C2.29787234 5.06382979 2.29787234 5.06382979 0 2 C0 1.34 0 0.68 0 0 Z " fill="#59493B" transform="translate(97,143)"/>
<path d="M0 0 C1.32 0 2.64 0 4 0 C3.34 1.32 2.68 2.64 2 4 C0.68 4 -0.64 4 -2 4 C-1.34 2.68 -0.68 1.36 0 0 Z " fill="#796351" transform="translate(410,145)"/>
<path d="M0 0 C-3.63423209 2.32590854 -6.77088331 2.16265833 -11 2 C-6.98764085 -0.6749061 -4.6342454 -1.48957888 0 0 Z " fill="#66513F" transform="translate(396,95)"/>
<path d="M0 0 C2.31 0.33 4.62 0.66 7 1 C7 1.99 7 2.98 7 4 C4 4 4 4 1.8125 2 C1.214375 1.34 0.61625 0.68 0 0 Z " fill="#665143" transform="translate(377,339)"/>
<path d="M0 0 C2.64 0.66 5.28 1.32 8 2 C8 2.33 8 2.66 8 3 C5.03 3 2.06 3 -1 3 C-0.67 2.01 -0.34 1.02 0 0 Z " fill="#685544" transform="translate(186,289)"/>
<path d="M0 0 C3.37462715 0.54723683 5.08235 1.0549 8 3 C7.67 3.66 7.34 4.32 7 5 C4.69 4.01 2.38 3.02 0 2 C0 1.34 0 0.68 0 0 Z " fill="#957863" transform="translate(174,233)"/>
<path d="M0 0 C0.66 0 1.32 0 2 0 C2 2.31 2 4.62 2 7 C1.01 7.495 1.01 7.495 0 8 C-0.38063221 5.6739143 -0.71269945 3.33944736 -1 1 C-0.67 0.67 -0.34 0.34 0 0 Z " fill="#977964" transform="translate(337,216)"/>
<path d="M0 0 C1 2 1 2 0.0625 5.125 C-0.288125 6.07375 -0.63875 7.0225 -1 8 C-3 5 -3 5 -3 1 C-2.01 0.67 -1.02 0.34 0 0 Z " fill="#6D5746" transform="translate(139,205)"/>
<path d="M0 0 C0.99 0.33 1.98 0.66 3 1 C3.33 2.98 3.66 4.96 4 7 C2.35 5.35 0.7 3.7 -1 2 C-0.67 1.34 -0.34 0.68 0 0 Z " fill="#7B634F" transform="translate(203,203)"/>
<path d="M0 0 C1.32 0 2.64 0 4 0 C4.625 2.375 4.625 2.375 5 5 C4.34 5.66 3.68 6.32 3 7 C0 2.25 0 2.25 0 0 Z " fill="#6F5C49" transform="translate(73,128)"/>
<path d="M0 0 C0.99 0 1.98 0 3 0 C2.34 2.31 1.68 4.62 1 7 C0.67 6.01 0.34 5.02 0 4 C-0.66 3.67 -1.32 3.34 -2 3 C-1.34 2.01 -0.68 1.02 0 0 Z " fill="#78624F" transform="translate(438,104)"/>
</svg>
